<svg width="224" height="46" viewBox="0 0 224 46" fill="none" xmlns="http://www.w3.org/2000/svg">
<g clip-path="url(#clip0_696_548)">
<path d="M40.71 40.32H0.85C0.38 40.32 0 39.94 0 39.47V35.38C0 34.91 0.38 34.53 0.85 34.53H16.24C16.76 34.53 17.19 34.11 17.19 33.58V26.71C17.19 26.19 16.77 25.76 16.24 25.76H8.51C6.16 25.76 4.26 23.86 4.26 21.51V7.46997C4.26 5.11997 6.16 3.21997 8.51 3.21997H32.84C35.19 3.21997 37.09 5.11997 37.09 7.46997V21.5C37.09 23.85 35.19 25.75 32.84 25.75H25.16C24.64 25.75 24.21 26.17 24.21 26.7V33.57C24.21 34.09 24.63 34.52 25.16 34.52H40.7C41.17 34.52 41.55 34.9 41.55 35.37V39.46C41.55 39.93 41.17 40.31 40.7 40.31L40.71 40.32ZM30.02 18.79V10.33C30.02 9.54997 29.39 8.90997 28.6 8.90997H12.71C11.93 8.90997 11.29 9.53997 11.29 10.33V18.79C11.29 19.57 11.92 20.21 12.71 20.21H28.6C29.38 20.21 30.02 19.58 30.02 18.79Z" fill="white"/>
<path d="M43.73 25.61H83.39C83.91 25.61 84.34 26.03 84.34 26.56V30.31C84.34 30.83 83.92 31.26 83.39 31.26H67.9C67.38 31.26 66.95 31.68 66.95 32.21V44.48C66.95 45 66.53 45.43 66 45.43H60.81C60.29 45.43 59.86 45.01 59.86 44.48V32.21C59.86 31.69 59.44 31.26 58.91 31.26H43.72C43.2 31.26 42.77 30.84 42.77 30.31V26.56C42.77 26.04 43.19 25.61 43.72 25.61H43.73ZM77.63 21.5H52.02C50.21 21.5 48.74 20.03 48.74 18.22V4.86996C48.74 3.46996 49.88 2.32996 51.28 2.32996H77.23C77.75 2.32996 78.18 2.74996 78.18 3.27996V7.02996C78.18 7.54996 77.76 7.97996 77.23 7.97996H56.02C55.04 7.97996 54.25 8.76996 54.25 9.74996V14.19C54.25 15.17 55.04 15.96 56.02 15.96H77.62C78.14 15.96 78.57 16.38 78.57 16.91V20.56C78.57 21.08 78.15 21.51 77.62 21.51L77.63 21.5Z" fill="white"/>
<path d="M115.88 32.01C116.03 33.42 115.05 34.69 113.65 34.92C105.45 36.26 96.98 36.47 90.13 36.5C88.71 36.5 87.52 35.46 87.33 34.06V33.99C87.08 32.28 88.39 30.77 90.1 30.76C96.91 30.74 105.27 30.54 112.96 29.66C114.42 29.49 115.73 30.55 115.89 32.02L115.88 32.01ZM114.06 14.26C114.01 20.87 108.56 25.58 101.33 25.55C94.17 25.57 88.6 20.87 88.6 14.26C88.6 7.65 94.17 2.94 101.33 2.97C108.56 2.95 114.01 7.68 114.06 14.26ZM101.33 19.41C104.57 19.43 107.08 17.65 107.12 14.26C107.07 10.94 104.59 9.11 101.33 9.11C98.07 9.11 95.68 10.94 95.68 14.26C95.68 17.58 98.16 19.44 101.33 19.41ZM120.29 0H122.84C124.09 0 125.11 1.02 125.11 2.27V43.3C125.11 44.55 124.09 45.57 122.84 45.57H120.29C119.04 45.57 118.02 44.55 118.02 43.3V2.27C118.02 1.02 119.04 0 120.29 0Z" fill="white"/>
<path d="M147.02 7.13H153.2C153.72 7.13 154.15 6.71 154.15 6.18V3.03C154.15 2.51 154.57 2.08 155.1 2.08H160.34C160.86 2.08 161.29 2.5 161.29 3.03V20.99C161.29 21.51 160.87 21.94 160.34 21.94H140C139.48 21.94 139.05 21.52 139.05 20.99V3.03C139.05 2.51 139.47 2.08 140 2.08H145.14C145.66 2.08 146.09 2.5 146.09 3.03V6.19C146.09 6.71 146.51 7.14 147.04 7.14L147.02 7.13ZM144.49 24.56H173.1C173.62 24.56 174.05 24.98 174.05 25.51V36.39C174.05 36.91 173.63 37.34 173.1 37.34H151.76C151.13 37.34 150.62 37.85 150.62 38.48C150.62 39.11 151.13 39.62 151.76 39.62H174.29C174.81 39.62 175.24 40.04 175.24 40.57V44.27C175.24 44.79 174.82 45.22 174.29 45.22H144.54C144.02 45.22 143.59 44.8 143.59 44.27V33.24C143.59 32.72 144.01 32.29 144.54 32.29H165.78C166.41 32.29 166.92 31.78 166.92 31.15C166.92 30.52 166.41 30.01 165.78 30.01H144.49C143.97 30.01 143.54 29.59 143.54 29.06V25.51C143.54 24.99 143.96 24.56 144.49 24.56ZM154.14 15.44V13.37C154.14 12.85 153.72 12.42 153.19 12.42H147.01C146.49 12.42 146.06 12.84 146.06 13.37V15.44C146.06 15.96 146.48 16.39 147.01 16.39H153.19C153.71 16.39 154.14 15.97 154.14 15.44ZM167.87 0H173.11C173.63 0 174.06 0.42 174.06 0.95V7.57C174.06 8.09 174.48 8.52 175.01 8.52H179.01C179.53 8.52 179.96 8.94 179.96 9.47V13.32C179.96 13.84 179.54 14.27 179.01 14.27H175.01C174.49 14.27 174.06 14.69 174.06 15.22V22.09C174.06 22.61 173.64 23.04 173.11 23.04H167.87C167.35 23.04 166.92 22.62 166.92 22.09V0.95C166.92 0.43 167.34 0 167.87 0Z" fill="white"/>
<path d="M197.97 22.09H190.65C190.13 22.09 189.7 22.51 189.7 23.04V28.13C189.7 28.66 190.14 29.09 190.67 29.08C194.15 29 197.48 28.8 201.08 28.21C201.62 28.12 202.13 28.5 202.18 29.04L202.45 31.7C202.58 33 201.84 33.95 200.79 34.11C195.78 34.9 191.22 34.97 186.12 34.97H183.8C183.28 34.97 182.85 34.55 182.85 34.02V17.49C182.85 16.97 183.27 16.54 183.8 16.54H192.07C192.59 16.54 193.02 16.12 193.02 15.59V10.95C193.02 10.43 192.6 10 192.07 10H183.75C183.23 10 182.8 9.58 182.8 9.05V5.3C182.8 4.78 183.22 4.35 183.75 4.35H197.95C198.47 4.35 198.9 4.77 198.9 5.3V21.14C198.9 21.66 198.48 22.09 197.95 22.09H197.97ZM201.7 17.25H204.06C204.58 17.25 205.01 16.83 205.01 16.3V2.27C205.01 1.45 205.67 0.79 206.49 0.79H210.17C210.99 0.79 211.65 1.45 211.65 2.27V41.86C211.65 42.68 210.99 43.34 210.17 43.34H206.49C205.67 43.34 205.01 42.68 205.01 41.86V23.95C205.01 23.43 204.59 23 204.06 23H201.7C201.18 23 200.75 22.58 200.75 22.05V18.2C200.75 17.68 201.17 17.25 201.7 17.25ZM215.85 0H219.63C220.45 0 221.11 0.66 221.11 1.48V43.99C221.11 44.81 220.45 45.47 219.63 45.47H215.85C215.03 45.47 214.37 44.81 214.37 43.99V1.48C214.37 0.66 215.03 0 215.85 0Z" fill="white"/>
</g>
<defs>
<clipPath id="clip0_696_548">
<rect width="223.11" height="45.57" fill="white"/>
</clipPath>
</defs>
</svg>
