<svg width="54" height="54" viewBox="0 0 54 54" fill="none" xmlns="http://www.w3.org/2000/svg">
<path d="M42.0975 42.875C40.23 45.665 38.25 48.3875 35.235 48.4325C32.22 48.5 31.2525 46.655 27.8325 46.655C24.39 46.655 23.3325 48.3875 20.475 48.5C17.5275 48.6125 15.3 45.53 13.41 42.8075C9.56252 37.25 6.61502 27.0125 10.575 20.1275C12.5325 16.7075 16.0425 14.5475 19.845 14.48C22.725 14.435 25.47 16.4375 27.2475 16.4375C29.0025 16.4375 32.3325 14.03 35.82 14.39C37.2825 14.4575 41.3775 14.975 44.01 18.845C43.8075 18.98 39.1275 21.725 39.1725 27.4175C39.24 34.2125 45.135 36.485 45.2025 36.5075C45.135 36.665 44.2575 39.7475 42.0975 42.875ZM29.25 6.875C30.8925 5.0075 33.615 3.59 35.865 3.5C36.1575 6.1325 35.1 8.7875 33.525 10.6775C31.9725 12.59 29.4075 14.075 26.8875 13.8725C26.55 11.285 27.81 8.585 29.25 6.875V6.875Z" fill="black"/>
</svg>
