<svg width="42" height="42" viewBox="0 0 42 42" fill="none" xmlns="http://www.w3.org/2000/svg">
<path fill-rule="evenodd" clip-rule="evenodd" d="M21 0C9.40227 0 0 9.40227 0 21C0 32.5977 9.40227 42 21 42C32.5977 42 42 32.5977 42 21C42 9.40227 32.5977 0 21 0ZM30.1025 17.4491C30.2702 17.2575 30.3978 17.0343 30.4778 16.7927C30.5579 16.551 30.5889 16.2958 30.5689 16.0421C30.5489 15.7883 30.4783 15.5411 30.3614 15.315C30.2444 15.0889 30.0834 14.8884 29.8879 14.7255C29.6923 14.5625 29.4661 14.4403 29.2226 14.366C28.9792 14.2918 28.7233 14.2669 28.4701 14.293C28.2168 14.3191 27.9714 14.3956 27.7481 14.5179C27.5249 14.6403 27.3284 14.806 27.1702 15.0055L18.9611 24.8545L14.7134 20.6048C14.3533 20.2571 13.8711 20.0646 13.3705 20.069C12.8699 20.0733 12.3911 20.2741 12.0372 20.6281C11.6832 20.982 11.4824 21.4609 11.4781 21.9614C11.4737 22.462 11.6662 22.9442 12.0139 23.3043L17.7412 29.0315C17.9288 29.219 18.1533 29.3653 18.4006 29.4612C18.6479 29.5571 18.9124 29.6004 19.1773 29.5883C19.4423 29.5763 19.7018 29.5092 19.9393 29.3913C20.1769 29.2734 20.3873 29.1073 20.5571 28.9036L30.1025 17.4491Z" fill="#222222"/>
</svg>
