<svg width="71" height="54" viewBox="0 0 71 54" fill="none" xmlns="http://www.w3.org/2000/svg">
<path d="M41.6818 46.3719L41.6819 46.3717L41.6705 46.3678L29.6327 42.1489L29.4935 42.1001L29.356 42.1533L18.8932 46.2034L18.889 46.2051C18.2643 46.455 17.7169 46.3856 17.1935 46.0001L17.193 45.9998C16.6576 45.6068 16.4 45.0985 16.4 44.4389V12.938C16.4 12.5336 16.515 12.1875 16.7427 11.8847L16.7433 11.8838C16.9723 11.5777 17.2894 11.3402 17.7113 11.1766L28.1608 7.63731C28.6148 7.49808 29.0662 7.42011 29.5157 7.40207C29.9453 7.38629 30.3789 7.46055 30.8193 7.62996L30.8193 7.63013L30.8306 7.63411L42.8685 11.853L43.0076 11.9018L43.1452 11.8485L53.608 7.7984L53.608 7.79843L53.6121 7.79677C54.2371 7.54676 54.7847 7.61565 55.3079 7.99965C55.8436 8.39423 56.1011 8.90345 56.1011 9.56294V41.0638C56.1011 41.4682 55.9862 41.8144 55.7584 42.1172L55.7578 42.118C55.5289 42.4241 55.2117 42.6616 54.7899 42.8252L44.3405 46.3645C43.8866 46.5037 43.4353 46.5809 42.986 46.5975L42.9848 46.5976C42.5555 46.6147 42.1221 46.5412 41.6818 46.3719ZM40.6186 42.1164L41.1507 42.3026V41.7388V15.4131V15.1293L40.8828 15.0356L31.8826 11.8855L31.3504 11.6992V12.263V38.5888V38.8726L31.6183 38.9663L40.6186 42.1164ZM44.8508 41.7388V42.2938L45.3773 42.1183L52.1275 39.8683L52.401 39.7771V39.4888V12.8255V12.2438L51.8578 12.452L45.1077 15.0396L44.8508 15.1381V15.4131V41.7388ZM20.1001 41.1763V41.758L20.6433 41.5498L27.3935 38.9623L27.6503 38.8638V38.5888V12.263V11.708L27.1238 11.8835L20.3736 14.1336L20.1001 14.2248V14.5131V41.1763Z" fill="#BBBBBB" stroke="white" stroke-width="0.8"/>
</svg>
