<svg width="55" height="54" viewBox="0 0 55 54" fill="none" xmlns="http://www.w3.org/2000/svg">
<path d="M35.8467 38.0355L36.0657 38.2546L45.7092 47.8981L48.3958 45.2115L38.7523 35.568L38.5331 35.3489L38.7241 35.1049C41.1374 32.0202 42.449 28.2166 42.45 24.3L35.8467 38.0355ZM35.8467 38.0355L35.6026 38.2263M35.8467 38.0355L35.6026 38.2263M35.6026 38.2263C32.5182 40.6384 28.7155 41.9492 24.8 41.95L35.6026 38.2263ZM24.7999 41.95C15.0685 41.95 7.14999 34.0315 7.14999 24.3C7.14999 14.5686 15.0685 6.65005 24.8 6.65005C34.5314 6.65005 42.4499 14.5686 42.45 24.3L24.7999 41.95ZM38.65 24.3C38.65 16.6615 32.4385 10.45 24.8 10.45C17.1614 10.45 10.95 16.6615 10.95 24.3C10.95 31.9386 17.1614 38.15 24.8 38.15C32.4385 38.15 38.65 31.9386 38.65 24.3Z" fill="#BBBBBB" stroke="white" stroke-width="0.7"/>
</svg>
