<svg width="50" height="50" viewBox="0 0 50 50" fill="none" xmlns="http://www.w3.org/2000/svg">
<g opacity="0.2">
<path d="M22.8208 41.6913L7.10027 25.9708L7.10002 25.9706C5.96277 24.8301 5.06936 23.4702 4.47412 21.9736C3.87884 20.4769 3.59421 18.8747 3.63754 17.2646C3.68087 15.6544 4.05125 14.0699 4.72617 12.6074C5.40102 11.1451 6.36623 9.83522 7.56312 8.75755C8.71584 7.72861 10.0641 6.94254 11.5274 6.44629C12.9909 5.94999 14.5394 5.75376 16.0804 5.86933L16.0825 5.86948C19.1698 6.07403 22.0778 7.39283 24.2656 9.58064L25.1548 10.4698L25.3329 10.6479L25.5097 10.4685L26.7757 9.18358C26.776 9.18331 26.7763 9.18304 26.7766 9.18277C27.9169 8.04579 29.2766 7.15258 30.773 6.55744C32.2697 5.96215 33.8718 5.67752 35.482 5.72085C37.0921 5.76418 38.6766 6.13457 40.1391 6.80949C41.6016 7.48436 42.9114 8.44963 43.9891 9.64659C45.018 10.7993 45.804 12.1475 46.3003 13.6107C46.7966 15.0742 46.9928 16.6227 46.8772 18.1637L46.8771 18.1658C46.6725 21.2531 45.3537 24.1611 43.1659 26.349L27.8225 41.6924L27.9992 41.8692L27.8224 41.6924C27.4957 42.0192 27.1075 42.2779 26.6802 42.4537C26.2528 42.6295 25.7949 42.7188 25.3329 42.7165L25.3307 42.7165C24.3916 42.72 23.4894 42.3516 22.8212 41.6918C22.8211 41.6916 22.8209 41.6915 22.8208 41.6913ZM10.277 11.7514L10.277 11.7514L10.2755 11.7527C9.48317 12.4618 8.84382 13.3251 8.39655 14.2897C7.94928 15.2544 7.7035 16.3001 7.67423 17.363C7.64496 18.4259 7.83282 19.4836 8.22632 20.4714C8.61981 21.4591 9.21066 22.3563 9.96273 23.1079C9.96275 23.1079 9.96277 23.1079 9.96279 23.1079L25.1548 38.3L25.3316 38.4767L25.5084 38.3L40.3032 23.5052L40.3038 23.5046C43.3931 20.3959 43.723 15.4022 40.9936 12.3586C40.2846 11.5664 39.4214 10.9271 38.4568 10.4799C37.4922 10.0326 36.4464 9.78681 35.3836 9.75754C34.3207 9.72827 33.263 9.91613 32.2752 10.3096C31.2874 10.7031 30.3903 11.294 29.6387 12.046C29.6387 12.0461 29.6387 12.0461 29.6386 12.0461L26.763 14.9218L26.7627 14.9221C26.575 15.1104 26.3519 15.2599 26.1064 15.3618C25.8608 15.4638 25.5975 15.5163 25.3316 15.5163C25.0657 15.5163 24.8024 15.4638 24.5569 15.3618C24.3113 15.2599 24.0883 15.1104 23.9006 14.9221L23.8996 14.9211L21.4038 12.4442C21.4035 12.4439 21.4033 12.4437 21.403 12.4434C20.6048 11.6376 19.6554 10.9973 18.6091 10.5594C17.5629 10.1216 16.4406 9.89467 15.3065 9.89172C13.4575 9.86665 11.665 10.5294 10.277 11.7514Z" fill="#333333" stroke="white" stroke-width="0.5"/>
</g>
</svg>
