<svg width="111" height="101" viewBox="0 0 222 203" fill="none" xmlns="http://www.w3.org/2000/svg">
<path fill-rule="evenodd" clip-rule="evenodd" d="M112 3H124V21H112C87.4173 21 66.5341 36.8397 59 58.8697V56C59 26.7289 82.7289 3 112 3ZM59 77V130H71C100.271 130 124 106.271 124 77V24H112C82.7289 24 59 47.7289 59 77ZM127 24V77C127 101.583 111.16 122.466 89.1303 130H112C141.271 130 165 106.271 165 77V24H127ZM71 133H59H56V130V77V56C56 25.0721 81.0721 0 112 0H124H127V3V21H165H168V24V77C168 107.928 142.928 133 112 133H71Z" fill="url(#paint0_linear_696_542)"/>
<path d="M40.71 197.32H0.85C0.38 197.32 0 196.94 0 196.47V192.38C0 191.91 0.38 191.53 0.85 191.53H16.24C16.76 191.53 17.19 191.11 17.19 190.58V183.71C17.19 183.19 16.77 182.76 16.24 182.76H8.51C6.16 182.76 4.26 180.86 4.26 178.51V164.47C4.26 162.12 6.16 160.22 8.51 160.22H32.84C35.19 160.22 37.09 162.12 37.09 164.47V178.5C37.09 180.85 35.19 182.75 32.84 182.75H25.16C24.64 182.75 24.21 183.17 24.21 183.7V190.57C24.21 191.09 24.63 191.52 25.16 191.52H40.7C41.17 191.52 41.55 191.9 41.55 192.37V196.46C41.55 196.93 41.17 197.31 40.7 197.31L40.71 197.32ZM30.02 175.79V167.33C30.02 166.55 29.39 165.91 28.6 165.91H12.71C11.93 165.91 11.29 166.54 11.29 167.33V175.79C11.29 176.57 11.92 177.21 12.71 177.21H28.6C29.38 177.21 30.02 176.58 30.02 175.79Z" fill="white"/>
<path d="M43.73 182.61H83.39C83.91 182.61 84.34 183.03 84.34 183.56V187.31C84.34 187.83 83.92 188.26 83.39 188.26H67.9C67.38 188.26 66.95 188.68 66.95 189.21V201.48C66.95 202 66.53 202.43 66 202.43H60.81C60.29 202.43 59.86 202.01 59.86 201.48V189.21C59.86 188.69 59.44 188.26 58.91 188.26H43.72C43.2 188.26 42.77 187.84 42.77 187.31V183.56C42.77 183.04 43.19 182.61 43.72 182.61H43.73ZM77.63 178.5H52.02C50.21 178.5 48.74 177.03 48.74 175.22V161.87C48.74 160.47 49.88 159.33 51.28 159.33H77.23C77.75 159.33 78.18 159.75 78.18 160.28V164.03C78.18 164.55 77.76 164.98 77.23 164.98H56.02C55.04 164.98 54.25 165.77 54.25 166.75V171.19C54.25 172.17 55.04 172.96 56.02 172.96H77.62C78.14 172.96 78.57 173.38 78.57 173.91V177.56C78.57 178.08 78.15 178.51 77.62 178.51L77.63 178.5Z" fill="white"/>
<path d="M115.88 189.01C116.03 190.42 115.05 191.69 113.65 191.92C105.45 193.26 96.98 193.47 90.13 193.5C88.71 193.5 87.52 192.46 87.33 191.06V190.99C87.08 189.28 88.39 187.77 90.1 187.76C96.91 187.74 105.27 187.54 112.96 186.66C114.42 186.49 115.73 187.55 115.89 189.02L115.88 189.01ZM114.06 171.26C114.01 177.87 108.56 182.58 101.33 182.55C94.17 182.57 88.6 177.87 88.6 171.26C88.6 164.65 94.17 159.94 101.33 159.97C108.56 159.95 114.01 164.68 114.06 171.26ZM101.33 176.41C104.57 176.43 107.08 174.65 107.12 171.26C107.07 167.94 104.59 166.11 101.33 166.11C98.07 166.11 95.68 167.94 95.68 171.26C95.68 174.58 98.16 176.44 101.33 176.41ZM120.29 157H122.84C124.09 157 125.11 158.02 125.11 159.27V200.3C125.11 201.55 124.09 202.57 122.84 202.57H120.29C119.04 202.57 118.02 201.55 118.02 200.3V159.27C118.02 158.02 119.04 157 120.29 157Z" fill="white"/>
<path d="M147.02 164.13H153.2C153.72 164.13 154.15 163.71 154.15 163.18V160.03C154.15 159.51 154.57 159.08 155.1 159.08H160.34C160.86 159.08 161.29 159.5 161.29 160.03V177.99C161.29 178.51 160.87 178.94 160.34 178.94H140C139.48 178.94 139.05 178.52 139.05 177.99V160.03C139.05 159.51 139.47 159.08 140 159.08H145.14C145.66 159.08 146.09 159.5 146.09 160.03V163.19C146.09 163.71 146.51 164.14 147.04 164.14L147.02 164.13ZM144.49 181.56H173.1C173.62 181.56 174.05 181.98 174.05 182.51V193.39C174.05 193.91 173.63 194.34 173.1 194.34H151.76C151.13 194.34 150.62 194.85 150.62 195.48C150.62 196.11 151.13 196.62 151.76 196.62H174.29C174.81 196.62 175.24 197.04 175.24 197.57V201.27C175.24 201.79 174.82 202.22 174.29 202.22H144.54C144.02 202.22 143.59 201.8 143.59 201.27V190.24C143.59 189.72 144.01 189.29 144.54 189.29H165.78C166.41 189.29 166.92 188.78 166.92 188.15C166.92 187.52 166.41 187.01 165.78 187.01H144.49C143.97 187.01 143.54 186.59 143.54 186.06V182.51C143.54 181.99 143.96 181.56 144.49 181.56V181.56ZM154.14 172.44V170.37C154.14 169.85 153.72 169.42 153.19 169.42H147.01C146.49 169.42 146.06 169.84 146.06 170.37V172.44C146.06 172.96 146.48 173.39 147.01 173.39H153.19C153.71 173.39 154.14 172.97 154.14 172.44V172.44ZM167.87 157H173.11C173.63 157 174.06 157.42 174.06 157.95V164.57C174.06 165.09 174.48 165.52 175.01 165.52H179.01C179.53 165.52 179.96 165.94 179.96 166.47V170.32C179.96 170.84 179.54 171.27 179.01 171.27H175.01C174.49 171.27 174.06 171.69 174.06 172.22V179.09C174.06 179.61 173.64 180.04 173.11 180.04H167.87C167.35 180.04 166.92 179.62 166.92 179.09V157.95C166.92 157.43 167.34 157 167.87 157Z" fill="white"/>
<path d="M197.97 179.09H190.65C190.13 179.09 189.7 179.51 189.7 180.04V185.13C189.7 185.66 190.14 186.09 190.67 186.08C194.15 186 197.48 185.8 201.08 185.21C201.62 185.12 202.13 185.5 202.18 186.04L202.45 188.7C202.58 190 201.84 190.95 200.79 191.11C195.78 191.9 191.22 191.97 186.12 191.97H183.8C183.28 191.97 182.85 191.55 182.85 191.02V174.49C182.85 173.97 183.27 173.54 183.8 173.54H192.07C192.59 173.54 193.02 173.12 193.02 172.59V167.95C193.02 167.43 192.6 167 192.07 167H183.75C183.23 167 182.8 166.58 182.8 166.05V162.3C182.8 161.78 183.22 161.35 183.75 161.35H197.95C198.47 161.35 198.9 161.77 198.9 162.3V178.14C198.9 178.66 198.48 179.09 197.95 179.09H197.97ZM201.7 174.25H204.06C204.58 174.25 205.01 173.83 205.01 173.3V159.27C205.01 158.45 205.67 157.79 206.49 157.79H210.17C210.99 157.79 211.65 158.45 211.65 159.27V198.86C211.65 199.68 210.99 200.34 210.17 200.34H206.49C205.67 200.34 205.01 199.68 205.01 198.86V180.95C205.01 180.43 204.59 180 204.06 180H201.7C201.18 180 200.75 179.58 200.75 179.05V175.2C200.75 174.68 201.17 174.25 201.7 174.25ZM215.85 157H219.63C220.45 157 221.11 157.66 221.11 158.48V200.99C221.11 201.81 220.45 202.47 219.63 202.47H215.85C215.03 202.47 214.37 201.81 214.37 200.99V158.48C214.37 157.66 215.03 157 215.85 157Z" fill="white"/>
<defs>
<linearGradient id="paint0_linear_696_542" x1="56" y1="0" x2="56" y2="133" gradientUnits="userSpaceOnUse">
<stop stop-color="white"/>
<stop offset="0.588542" stop-color="white"/>
<stop offset="1" stop-color="white" stop-opacity="0.33"/>
</linearGradient>
</defs>
</svg>
